# xmcd
#
# Track frame offsets: 
#        150
#        15256
#        45021
#        61663
#        95635
#        131119
#        153561
#        191217
#        205430
#        222738
#        243659
#
# Disc length: 3471 seconds
#
# Revision: 0
# Processed by: cddbd v1.5.2PL0 Copyright (c) Steve Scherf et al.
# Submitted via: ExactAudioCopy v1.3
#
DISCID=9d0d8d0b
DTITLE=The Paul Speidel Band - Backline
DYEAR=2017
DGENRE=Blues
TTITLE0=The Keeper
TTITLE1=Hurry Up and Wait
TTITLE2=Giddy Up
TTITLE3=Wobbles
TTITLE4=The Fourth Wall
TTITLE5=Shatterbolt
TTITLE6=Lorem Ipsum
TTITLE7=Kind Farewells
TTITLE8=Hurry Up and Wait (Festival Edit)
TTITLE9=He Said, She Said
TTITLE10=Never Touching the Ground
EXTD=
EXTT0=
EXTT1=
EXTT2=
EXTT3=
EXTT4=
EXTT5=
EXTT6=
EXTT7=
EXTT8=
EXTT9=
EXTT10=
PLAYORDER=
